<svg xmlns="http://www.w3.org/2000/svg" xmlns:xlink="http://www.w3.org/1999/xlink" width="242.063" height="64.195" viewBox="0 0 242.063 64.195">
  <defs>
    <clipPath id="clip-path">
      <path id="Path_44034" data-name="Path 44034" d="M43.588,40.5l9.227-12.228H40.9l-9.035,15.86H38.4L28.69,61.807,50.893,40.5Z" transform="translate(-28.69 -28.271)" fill="rgba(0,0,0,0)"/>
    </clipPath>
    <linearGradient id="linear-gradient" x1="-0.686" y1="1.195" x2="-0.662" y2="1.195" gradientUnits="objectBoundingBox">
      <stop offset="0" stop-color="#81e4fb"/>
      <stop offset="1" stop-color="#2f5291"/>
    </linearGradient>
    <clipPath id="clip-path-2">
      <path id="Path_44035" data-name="Path 44035" d="M4.762,65.415a.788.788,0,1,1,.788.788.789.789,0,0,1-.788-.788m9.447-.238H7.08a1.553,1.553,0,1,0-.074.766h7.536l6.078-6.49-.559-.525Z" transform="translate(-3.996 -58.928)" fill="#f68f39"/>
    </clipPath>
    <clipPath id="clip-path-3">
      <path id="Path_44036" data-name="Path 44036" d="M16.322,75.753a.788.788,0,1,1,.788.788.789.789,0,0,1-.788-.788M18.1,74.569a1.571,1.571,0,1,0,.455.638l7.372-8.061-.566-.517Z" transform="translate(-15.556 -66.629)" fill="#f68f39"/>
    </clipPath>
    <clipPath id="clip-path-4">
      <path id="Path_44037" data-name="Path 44037" d="M6.736,39.632a.788.788,0,1,1,.788.788.789.789,0,0,1-.788-.788m-.766,0a1.551,1.551,0,0,0,3.054.383h18v-.766h-18a1.551,1.551,0,0,0-3.054.383" transform="translate(-5.97 -38.078)" fill="#f68f39"/>
    </clipPath>
    <clipPath id="clip-path-5">
      <path id="Path_44038" data-name="Path 44038" d="M3.884,22.241a.788.788,0,1,1,.788.788.789.789,0,0,1-.788-.788M25.911,2.706a.788.788,0,1,1,.788.788.789.789,0,0,1-.788-.788m-.766,0a1.552,1.552,0,0,0,1.17,1.5v6.9a10.763,10.763,0,0,1-10.75,10.752H6.172a1.554,1.554,0,1,0,0,.766h9.392A11.53,11.53,0,0,0,27.082,11.106v-6.9a1.551,1.551,0,1,0-1.937-1.5" transform="translate(-3.118 -1.152)" fill="#f68f39"/>
    </clipPath>
    <clipPath id="clip-path-6">
      <path id="Path_44039" data-name="Path 44039" d="M7.591,17.986a.906.906,0,1,1,.906.906.906.906,0,0,1-.906-.906M22.848,4.565a.783.783,0,1,1,.783.783.784.784,0,0,1-.783-.783m-.766,0a1.548,1.548,0,0,0,1.166,1.5v4.276A7.275,7.275,0,0,1,15.98,17.6H10.119a1.671,1.671,0,1,0,0,.766H15.98a8.042,8.042,0,0,0,8.034-8.033V6.061a1.547,1.547,0,1,0-1.933-1.5" transform="translate(-6.825 -3.015)" fill="#f68f39"/>
    </clipPath>
    <clipPath id="clip-path-7">
      <path id="Path_44040" data-name="Path 44040" d="M46.846,14.863a.788.788,0,1,1,.788.788.789.789,0,0,1-.788-.788m0-13.309a.788.788,0,1,1,.788.788.788.788,0,0,1-.788-.788M47.634,0a1.551,1.551,0,0,0-.383,3.054V13.362a1.554,1.554,0,1,0,.766,0V3.054A1.551,1.551,0,0,0,47.634,0Z" transform="translate(-46.08)" fill="#f68f39"/>
    </clipPath>
    <clipPath id="clip-path-8">
      <path id="Path_44041" data-name="Path 44041" d="M76.4,14.229a.788.788,0,1,1,.787.789.789.789,0,0,1-.787-.789M59.578,2.706a.788.788,0,1,1,.787.788.789.789,0,0,1-.787-.788m-.766,0a1.554,1.554,0,0,0,1.206,1.512c.53,6.052,5.241,10.253,11.581,10.253h4.058a1.556,1.556,0,1,0,.074-.766H71.6c-5.906,0-10.3-3.9-10.813-9.51a1.551,1.551,0,1,0-1.973-1.489" transform="translate(-58.812 -1.152)" fill="#f68f39"/>
    </clipPath>
    <clipPath id="clip-path-9">
      <path id="Path_44042" data-name="Path 44042" d="M76.35,11.322a.765.765,0,1,1,.765.766.765.765,0,0,1-.765-.766M67.6,5.371a.766.766,0,1,1,.766.765.766.766,0,0,1-.766-.765m-.766,0a1.532,1.532,0,0,0,1.2,1.493,5.573,5.573,0,0,0,5.786,4.842h1.816a1.532,1.532,0,1,0,0-.766H73.822A4.837,4.837,0,0,1,68.8,6.831a1.528,1.528,0,1,0-1.967-1.46" transform="translate(-66.835 -3.839)" fill="#f68f39"/>
    </clipPath>
    <clipPath id="clip-path-10">
      <path id="Path_44043" data-name="Path 44043" d="M70.407,34.725a.788.788,0,1,1,.789.788.789.789,0,0,1-.789-.788m11.777-8.359a.788.788,0,1,1,.788.788.788.788,0,0,1-.788-.788m-.766,0a1.552,1.552,0,0,0,1.17,1.5v6.476H72.7a1.554,1.554,0,1,0,0,.766H83.355V27.866a1.551,1.551,0,1,0-1.937-1.5" transform="translate(-69.641 -24.812)" fill="#f68f39"/>
    </clipPath>
    <clipPath id="clip-path-11">
      <path id="Path_44044" data-name="Path 44044" d="M85.557,51.434a.788.788,0,1,1,.788.788.788.788,0,0,1-.788-.788m-.28-6.37a.789.789,0,1,1,.788.787.789.789,0,0,1-.788-.787m-.712-.383H75.22l-4.846,6.37H66.232v.766H84.844a1.554,1.554,0,1,0,0-.766H71.336l4.264-5.6h8.964a1.554,1.554,0,1,0,0-.766" transform="translate(-66.232 -43.511)" fill="#f68f39"/>
    </clipPath>
    <clipPath id="clip-path-12">
      <path id="Path_44045" data-name="Path 44045" d="M78.748,61.36a.788.788,0,1,1,.788.788.789.789,0,0,1-.788-.788m-.712-.383h-18.4v.766h18.4a1.554,1.554,0,1,0,0-.766" transform="translate(-59.636 -59.806)" fill="#f68f39"/>
    </clipPath>
    <clipPath id="clip-path-13">
      <path id="Path_44046" data-name="Path 44046" d="M.766,48.8a.788.788,0,1,1,.789.788A.789.789,0,0,1,.766,48.8M0,48.8a1.551,1.551,0,0,0,3.055.383H19.628v-.767H3.055A1.551,1.551,0,0,0,0,48.8" transform="translate(0 -47.247)" fill="#f68f39"/>
    </clipPath>
    <clipPath id="clip-path-14">
      <path id="Path_44047" data-name="Path 44047" d="M38.766,87.794a.788.788,0,1,1,.788.787.789.789,0,0,1-.788-.787m0-8.716a.788.788,0,1,1,.788.788.788.788,0,0,1-.788-.788m-.766,0a1.552,1.552,0,0,0,1.171,1.5v5.715a1.554,1.554,0,1,0,.766,0V80.579A1.552,1.552,0,1,0,38,79.078" transform="translate(-38 -77.524)" fill="#f68f39"/>
    </clipPath>
    <clipPath id="clip-path-15">
      <path id="Path_44048" data-name="Path 44048" d="M48.013,87.672a.788.788,0,1,1,.787.789.789.789,0,0,1-.787-.789m6.486-.493a.788.788,0,1,1,.788.788.789.789,0,0,1-.788-.788M48.418,72.907V86.172a1.554,1.554,0,1,0,.766,0V77.309L55,81.511v4.142a1.566,1.566,0,1,0,.766.054V81.12l-6.581-4.757V72.907Z" transform="translate(-47.247 -72.907)" fill="#f68f39"/>
    </clipPath>
    <clipPath id="clip-path-16">
      <path id="Path_44049" data-name="Path 44049" d="M57.65,75.51a.788.788,0,1,1,.788.788.788.788,0,0,1-.788-.788m-4.92-3.415a.788.788,0,1,1,.788.788.788.788,0,0,1-.788-.788m-.766,0a1.556,1.556,0,0,0,1.554,1.554,1.538,1.538,0,0,0,.917-.306l2.528,1.7a1.52,1.52,0,0,0-.08.468,1.564,1.564,0,1,0,.483-1.121l-2.443-1.642a1.532,1.532,0,0,0,.148-.653,1.554,1.554,0,1,0-3.108,0" transform="translate(-51.964 -70.54)" fill="#f68f39"/>
    </clipPath>
    <clipPath id="clip-path-17">
      <path id="Path_44050" data-name="Path 44050" d="M11.875,58.044a.789.789,0,1,1,.657.351.789.789,0,0,1-.657-.351m-5.987-.12a.788.788,0,1,1,1.092.219.787.787,0,0,1-1.092-.219m-.2-1.731A1.554,1.554,0,0,0,7.4,58.781,1.533,1.533,0,0,0,8,58.019l3.046.014a1.547,1.547,0,1,0-.026-.766l-2.943-.014a1.532,1.532,0,0,0-.237-.625,1.556,1.556,0,0,0-2.155-.434" transform="translate(-4.991 -55.934)" fill="#f68f39"/>
    </clipPath>
    <clipPath id="clip-path-18">
      <path id="Path_44051" data-name="Path 44051" d="M16.528,15.367a.786.786,0,1,1,.159.016.788.788,0,0,1-.159-.016m4.336-4.131a.789.789,0,1,1,.159.016.82.82,0,0,1-.159-.016M19.5,10.151a1.544,1.544,0,0,0,.208,1.136l-2.1,2.063a1.566,1.566,0,1,0,.485.6l2.173-2.134a1.549,1.549,0,1,0-.766-1.663" transform="translate(-15.133 -8.91)" fill="#f68f39"/>
    </clipPath>
    <clipPath id="clip-path-19">
      <path id="Path_44052" data-name="Path 44052" d="M25.658,89.863a.788.788,0,1,1,.887.674.745.745,0,0,1-.108.007.789.789,0,0,1-.779-.681m-5.337-2.717a.788.788,0,1,1,.888.674.855.855,0,0,1-.108.007.79.79,0,0,1-.78-.681m.571-1.647a1.554,1.554,0,1,0,1.288,2.652l2.735,1.341a1.528,1.528,0,0,0-.016.475,1.563,1.563,0,1,0,.327-1.176l-2.644-1.3a1.541,1.541,0,0,0,.059-.667A1.556,1.556,0,0,0,21.1,85.485a1.541,1.541,0,0,0-.212.014" transform="translate(-19.548 -85.485)" fill="#f68f39"/>
    </clipPath>
    <clipPath id="clip-path-20">
      <path id="Path_44053" data-name="Path 44053" d="M53.337,14.146A.789.789,0,1,1,54,14.5a.787.787,0,0,1-.659-.354m.144-5.987a.789.789,0,1,1,.659.354.79.79,0,0,1-.659-.354m-.2-1.731a1.548,1.548,0,0,0,.318,2.75l-.028,3.046a1.523,1.523,0,0,0-.435.191,1.563,1.563,0,1,0,1.2-.213l.026-2.943a1.552,1.552,0,1,0-1.084-2.83" transform="translate(-52.441 -6.172)" fill="#f68f39"/>
    </clipPath>
    <clipPath id="clip-path-21">
      <path id="Path_44054" data-name="Path 44054" d="M66,82.686a.788.788,0,1,1,.788.788A.788.788,0,0,1,66,82.686M82.356,66.21a.788.788,0,1,1,.788.788.79.79,0,0,1-.788-.788m-.712-.383h-6.85a8.4,8.4,0,0,0-8.386,8.386v6.973a1.554,1.554,0,1,0,.767,0V74.212a7.628,7.628,0,0,1,7.619-7.619h6.85a1.554,1.554,0,1,0,0-.766" transform="translate(-65.237 -64.656)" fill="#f68f39"/>
    </clipPath>
    <clipPath id="clip-path-22">
      <path id="Path_44055" data-name="Path 44055" d="M72.8,83.017a.8.8,0,1,1,.8.8.8.8,0,0,1-.8-.8m9.748-9.692a.84.84,0,1,1,.84.84.841.841,0,0,1-.84-.84m-.715-.383H78.385a5.179,5.179,0,0,0-5.173,5.174V81.5a1.564,1.564,0,1,0,.766,0v-3.39a4.412,4.412,0,0,1,4.407-4.408h3.444a1.607,1.607,0,1,0,0-.766" transform="translate(-72.031 -71.718)" fill="#f68f39"/>
    </clipPath>
  </defs>
  <g id="Group_13661" data-name="Group 13661">
    <g id="Group_13618" data-name="Group 13618" transform="translate(20.517 19.582)">
      <g id="Group_13617" data-name="Group 13617" transform="translate(0 0)" clip-path="url(#clip-path)">
        <rect id="Rectangle_54" data-name="Rectangle 54" width="24.125" height="33.536" transform="translate(0 0)" fill="url(#linear-gradient)"/>
      </g>
    </g>
    <g id="Group_13620" data-name="Group 13620" transform="translate(2.624 38.696)">
      <g id="Group_13619" data-name="Group 13619" clip-path="url(#clip-path-2)">
        <rect id="Rectangle_55" data-name="Rectangle 55" width="16.623" height="8.04" transform="translate(0 0)" fill="#f68f39"/>
      </g>
    </g>
    <g id="Group_13622" data-name="Group 13622" transform="translate(10.215 43.753)">
      <g id="Group_13621" data-name="Group 13621" clip-path="url(#clip-path-3)">
        <rect id="Rectangle_56" data-name="Rectangle 56" width="10.375" height="10.679" transform="translate(0 0)" fill="#f68f39"/>
      </g>
    </g>
    <g id="Group_13624" data-name="Group 13624" transform="translate(3.92 25.004)">
      <g id="Group_13623" data-name="Group 13623" clip-path="url(#clip-path-4)">
        <rect id="Rectangle_57" data-name="Rectangle 57" width="21.058" height="3.109" transform="translate(0 0)" fill="#f68f39"/>
      </g>
    </g>
    <g id="Group_13626" data-name="Group 13626" transform="translate(2.047 0.756)">
      <g id="Group_13625" data-name="Group 13625" clip-path="url(#clip-path-5)">
        <rect id="Rectangle_58" data-name="Rectangle 58" width="25.134" height="22.643" transform="translate(0 0)" fill="#f68f39"/>
      </g>
    </g>
    <g id="Group_13628" data-name="Group 13628" transform="translate(4.482 1.98)">
      <g id="Group_13627" data-name="Group 13627" clip-path="url(#clip-path-6)">
        <rect id="Rectangle_59" data-name="Rectangle 59" width="18.355" height="16.642" transform="translate(0 0)" fill="#f68f39"/>
      </g>
    </g>
    <g id="Group_13630" data-name="Group 13630" transform="translate(30.259 0)">
      <g id="Group_13629" data-name="Group 13629" clip-path="url(#clip-path-7)">
        <rect id="Rectangle_60" data-name="Rectangle 60" width="3.108" height="16.417" transform="translate(0 0)" fill="#f68f39"/>
      </g>
    </g>
    <g id="Group_13632" data-name="Group 13632" transform="translate(38.62 0.756)">
      <g id="Group_13631" data-name="Group 13631" clip-path="url(#clip-path-8)">
        <rect id="Rectangle_61" data-name="Rectangle 61" width="19.928" height="14.632" transform="translate(0 0)" fill="#f68f39"/>
      </g>
    </g>
    <g id="Group_13634" data-name="Group 13634" transform="translate(43.888 2.521)">
      <g id="Group_13633" data-name="Group 13633" clip-path="url(#clip-path-9)">
        <rect id="Rectangle_62" data-name="Rectangle 62" width="11.811" height="9.015" transform="translate(0 0)" fill="#f68f39"/>
      </g>
    </g>
    <g id="Group_13636" data-name="Group 13636" transform="translate(45.731 16.293)">
      <g id="Group_13635" data-name="Group 13635" clip-path="url(#clip-path-10)">
        <rect id="Rectangle_63" data-name="Rectangle 63" width="14.885" height="11.467" transform="translate(0 0)" fill="#f68f39"/>
      </g>
    </g>
    <g id="Group_13638" data-name="Group 13638" transform="translate(43.492 28.572)">
      <g id="Group_13637" data-name="Group 13637" clip-path="url(#clip-path-11)">
        <rect id="Rectangle_64" data-name="Rectangle 64" width="21.667" height="9.477" transform="translate(0 0)" fill="#f68f39"/>
      </g>
    </g>
    <g id="Group_13640" data-name="Group 13640" transform="translate(39.161 39.272)">
      <g id="Group_13639" data-name="Group 13639" clip-path="url(#clip-path-12)">
        <rect id="Rectangle_65" data-name="Rectangle 65" width="21.455" height="3.108" transform="translate(0 0)" fill="#f68f39"/>
      </g>
    </g>
    <g id="Group_13642" data-name="Group 13642" transform="translate(0 31.025)">
      <g id="Group_13641" data-name="Group 13641" clip-path="url(#clip-path-13)">
        <rect id="Rectangle_66" data-name="Rectangle 66" width="19.628" height="3.108" transform="translate(0 0)" fill="#f68f39"/>
      </g>
    </g>
    <g id="Group_13644" data-name="Group 13644" transform="translate(24.953 50.907)">
      <g id="Group_13643" data-name="Group 13643" clip-path="url(#clip-path-14)">
        <rect id="Rectangle_67" data-name="Rectangle 67" width="3.108" height="11.825" transform="translate(0 0)" fill="#f68f39"/>
      </g>
    </g>
    <g id="Group_13646" data-name="Group 13646" transform="translate(31.025 47.875)">
      <g id="Group_13645" data-name="Group 13645" clip-path="url(#clip-path-15)">
        <rect id="Rectangle_68" data-name="Rectangle 68" width="9.594" height="16.319" transform="translate(0 0)" fill="#f68f39"/>
      </g>
    </g>
    <g id="Group_13648" data-name="Group 13648" transform="translate(34.123 46.321)">
      <g id="Group_13647" data-name="Group 13647" clip-path="url(#clip-path-16)">
        <rect id="Rectangle_69" data-name="Rectangle 69" width="8.028" height="6.523" transform="translate(0 0)" fill="#f68f39"/>
      </g>
    </g>
    <g id="Group_13650" data-name="Group 13650" transform="translate(3.277 36.73)">
      <g id="Group_13649" data-name="Group 13649" clip-path="url(#clip-path-17)">
        <rect id="Rectangle_70" data-name="Rectangle 70" width="9.525" height="3.537" transform="translate(-0.215 -0.095)" fill="#f68f39"/>
      </g>
    </g>
    <g id="Group_13652" data-name="Group 13652" transform="translate(9.937 5.851)">
      <g id="Group_13651" data-name="Group 13651" clip-path="url(#clip-path-18)">
        <rect id="Rectangle_71" data-name="Rectangle 71" width="7.725" height="7.38" transform="translate(-0.141 0)" fill="#f68f39"/>
      </g>
    </g>
    <g id="Group_13654" data-name="Group 13654" transform="translate(12.836 56.135)">
      <g id="Group_13653" data-name="Group 13653" clip-path="url(#clip-path-19)">
        <rect id="Rectangle_72" data-name="Rectangle 72" width="8.649" height="5.927" transform="translate(-0.102 0)" fill="#f68f39"/>
      </g>
    </g>
    <g id="Group_13656" data-name="Group 13656" transform="translate(34.436 4.053)">
      <g id="Group_13655" data-name="Group 13655" clip-path="url(#clip-path-20)">
        <rect id="Rectangle_73" data-name="Rectangle 73" width="3.683" height="9.31" transform="translate(-0.215 0)" fill="#f68f39"/>
      </g>
    </g>
    <g id="Group_13658" data-name="Group 13658" transform="translate(42.839 42.457)">
      <g id="Group_13657" data-name="Group 13657" clip-path="url(#clip-path-21)">
        <rect id="Rectangle_74" data-name="Rectangle 74" width="19.461" height="19.584" transform="translate(0 0)" fill="#f68f39"/>
      </g>
    </g>
    <g id="Group_13660" data-name="Group 13660" transform="translate(47.3 47.095)">
      <g id="Group_13659" data-name="Group 13659" clip-path="url(#clip-path-22)">
        <rect id="Rectangle_75" data-name="Rectangle 75" width="12.96" height="12.863" transform="translate(0 0)" fill="#f68f39"/>
      </g>
    </g>
  </g>
  <g id="Group_13683" data-name="Group 13683" transform="translate(75.136 2.07)">
    <path id="Path_44063" data-name="Path 44063" d="M11.077-13.508v9.185A4.308,4.308,0,0,1,9.876-1.2,4.841,4.841,0,0,1,6.643.167L6.169.186a5.056,5.056,0,0,1-3.535-1.2A4.28,4.28,0,0,1,1.3-4.3v-9.2H3.062V-4.36a3.09,3.09,0,0,0,.807,2.278,3.1,3.1,0,0,0,2.3.812,3.123,3.123,0,0,0,2.315-.807,3.084,3.084,0,0,0,.8-2.273v-9.157Zm12.144,1.457H18.879V0H17.107V-12.051H12.775v-1.457H23.221ZM27.136,0H25.355V-13.508h1.781Zm5.047-1.457h6.4V0H30.393V-13.508h1.791ZM42.527,0H40.746V-13.508h1.781ZM55.117-12.051H50.775V0H49V-12.051H44.67v-1.457H55.117Zm6.271,5.325,3.525-6.782h2.022l-4.657,8.47V0H60.5V-5.038l-4.657-8.47h2.041Zm11.365,3.1A3.168,3.168,0,0,1,73.3-5.418a8.27,8.27,0,0,1,2.073-1.9,8.954,8.954,0,0,1-1.206-1.763,3.163,3.163,0,0,1-.306-1.327,3.184,3.184,0,0,1,.909-2.412,3.416,3.416,0,0,1,2.468-.872,3.325,3.325,0,0,1,2.3.812,2.625,2.625,0,0,1,.909,2.046,2.886,2.886,0,0,1-.413,1.508,5.365,5.365,0,0,1-1.443,1.452l-.993.733L80.6-3.553a5.7,5.7,0,0,0,.631-2.681h1.549A6.468,6.468,0,0,1,81.641-2.31L83.57,0h-2.06l-.9-1.067A4.7,4.7,0,0,1,79-.135a5.7,5.7,0,0,1-1.879.32A4.642,4.642,0,0,1,73.95-.863,3.5,3.5,0,0,1,72.753-3.627Zm4.37,2.412a3.612,3.612,0,0,0,2.5-1.039L76.325-6.2l-.306.223a3.089,3.089,0,0,0-1.549,2.347,2.278,2.278,0,0,0,.71,1.753A2.746,2.746,0,0,0,77.123-1.215Zm-1.549-9.25a3.9,3.9,0,0,0,1.095,2.227l1.095-.77a2.913,2.913,0,0,0,.863-.849,1.934,1.934,0,0,0,.232-.979,1.327,1.327,0,0,0-.464-1.034,1.693,1.693,0,0,0-1.169-.413,1.513,1.513,0,0,0-1.206.515A1.921,1.921,0,0,0,75.573-10.465Z" transform="translate(0 20)" fill="#134a94"/>
    <path id="Path_44064" data-name="Path 44064" d="M5.548-6.021A8.376,8.376,0,0,1,2.213-7.64a3.093,3.093,0,0,1-1.044-2.37A3.267,3.267,0,0,1,2.445-12.65a5.07,5.07,0,0,1,3.317-1.044,5.534,5.534,0,0,1,2.482.538,4.081,4.081,0,0,1,1.688,1.484,3.8,3.8,0,0,1,.6,2.069H8.739a2.47,2.47,0,0,0-.779-1.932,3.169,3.169,0,0,0-2.2-.7,3.244,3.244,0,0,0-2.055.581,1.938,1.938,0,0,0-.738,1.612,1.743,1.743,0,0,0,.7,1.4A6.87,6.87,0,0,0,6.053-7.6,11.063,11.063,0,0,1,8.688-6.554,4,4,0,0,1,10.1-5.223a3.4,3.4,0,0,1,.459,1.791A3.156,3.156,0,0,1,9.277-.8,5.459,5.459,0,0,1,5.854.186a6.349,6.349,0,0,1-2.6-.533A4.372,4.372,0,0,1,1.4-1.809,3.566,3.566,0,0,1,.742-3.915H2.533a2.326,2.326,0,0,0,.9,1.934,3.809,3.809,0,0,0,2.417.71,3.5,3.5,0,0,0,2.162-.575,1.868,1.868,0,0,0,.751-1.568,1.834,1.834,0,0,0-.7-1.535A8.022,8.022,0,0,0,5.548-6.021Zm9.593-7.487L19.557-2.486l4.416-11.021h2.31V0H24.5V-5.26l.167-5.678L20.234,0H18.87L14.445-10.91l.176,5.65V0H12.84V-13.508ZM36.887-3.535H31.228L29.957,0H28.12l5.158-13.508h1.559L40,0H38.176ZM31.766-4.991h4.592l-2.3-6.318Zm15.011-.473H43.6V0H41.813V-13.508h4.472A5.293,5.293,0,0,1,49.8-12.469a3.738,3.738,0,0,1,1.229,3.024,3.636,3.636,0,0,1-.682,2.2,4.07,4.07,0,0,1-1.9,1.4L51.619-.111V0H49.708ZM43.6-6.921H46.34a3.087,3.087,0,0,0,2.111-.688,2.326,2.326,0,0,0,.784-1.84,2.449,2.449,0,0,0-.747-1.924,3.162,3.162,0,0,0-2.157-.678H43.6Zm18.508-5.13H57.77V0H56V-12.051H51.666v-1.457H62.112Zm10.316,6.03A8.376,8.376,0,0,1,69.093-7.64a3.093,3.093,0,0,1-1.044-2.37,3.267,3.267,0,0,1,1.276-2.639,5.07,5.07,0,0,1,3.317-1.044,5.534,5.534,0,0,1,2.482.538,4.081,4.081,0,0,1,1.688,1.484,3.8,3.8,0,0,1,.6,2.069H75.62a2.47,2.47,0,0,0-.779-1.932,3.169,3.169,0,0,0-2.2-.7,3.244,3.244,0,0,0-2.055.581,1.938,1.938,0,0,0-.738,1.612,1.743,1.743,0,0,0,.7,1.4A6.87,6.87,0,0,0,72.934-7.6a11.063,11.063,0,0,1,2.635,1.045,4,4,0,0,1,1.41,1.331,3.4,3.4,0,0,1,.459,1.791A3.156,3.156,0,0,1,76.158-.8a5.459,5.459,0,0,1-3.423.988,6.349,6.349,0,0,1-2.6-.533,4.372,4.372,0,0,1-1.86-1.461,3.566,3.566,0,0,1-.654-2.106h1.791a2.326,2.326,0,0,0,.9,1.934,3.809,3.809,0,0,0,2.417.71A3.5,3.5,0,0,0,74.9-1.846a1.868,1.868,0,0,0,.751-1.568,1.834,1.834,0,0,0-.7-1.535A8.022,8.022,0,0,0,72.428-6.021Zm17.683-.3a8.356,8.356,0,0,1-.668,3.465A5.06,5.06,0,0,1,87.55-.594a5.207,5.207,0,0,1-2.857.779A5.163,5.163,0,0,1,81.863-.6a5.18,5.18,0,0,1-1.916-2.236,8.017,8.017,0,0,1-.7-3.363v-.974a8.257,8.257,0,0,1,.677-3.442A5.162,5.162,0,0,1,81.84-12.9a5.14,5.14,0,0,1,2.834-.793,5.236,5.236,0,0,1,2.862.784,5.05,5.05,0,0,1,1.906,2.273,8.4,8.4,0,0,1,.668,3.465ZM88.339-7.19a6.056,6.056,0,0,0-.965-3.688,3.182,3.182,0,0,0-2.7-1.285,3.148,3.148,0,0,0-2.658,1.285,5.932,5.932,0,0,0-1,3.567v.993A6.065,6.065,0,0,0,82-2.658a3.161,3.161,0,0,0,2.7,1.331,3.149,3.149,0,0,0,2.672-1.257,6.031,6.031,0,0,0,.974-3.6Zm6.234,5.733h6.4V0H92.783V-13.508h1.791Zm17.441-12.051v9.185a4.308,4.308,0,0,1-1.2,3.126A4.841,4.841,0,0,1,107.58.167l-.473.019a5.056,5.056,0,0,1-3.535-1.2A4.28,4.28,0,0,1,102.236-4.3v-9.2H104V-4.36a3.09,3.09,0,0,0,.807,2.278,3.1,3.1,0,0,0,2.3.812,3.123,3.123,0,0,0,2.315-.807,3.084,3.084,0,0,0,.8-2.273v-9.157Zm12.144,1.457h-4.342V0h-1.772V-12.051h-4.333v-1.457h10.446ZM128.074,0h-1.781V-13.508h1.781Zm13.647-6.318a8.356,8.356,0,0,1-.668,3.465A5.06,5.06,0,0,1,139.16-.594,5.207,5.207,0,0,1,136.3.186a5.163,5.163,0,0,1-2.83-.784,5.181,5.181,0,0,1-1.916-2.236,8.018,8.018,0,0,1-.7-3.363v-.974a8.257,8.257,0,0,1,.677-3.442A5.162,5.162,0,0,1,133.45-12.9a5.141,5.141,0,0,1,2.834-.793,5.236,5.236,0,0,1,2.862.784,5.05,5.05,0,0,1,1.906,2.273,8.4,8.4,0,0,1,.668,3.465Zm-1.772-.872a6.056,6.056,0,0,0-.965-3.688,3.182,3.182,0,0,0-2.7-1.285,3.148,3.148,0,0,0-2.658,1.285,5.932,5.932,0,0,0-1,3.567v.993a6.065,6.065,0,0,0,.979,3.66,3.161,3.161,0,0,0,2.7,1.331,3.149,3.149,0,0,0,2.672-1.257,6.031,6.031,0,0,0,.974-3.6ZM154.774,0h-1.791l-6.8-10.409V0h-1.791V-13.508h1.791L153-3.052V-13.508h1.772Zm7.144-6.021a8.376,8.376,0,0,1-3.335-1.619,3.093,3.093,0,0,1-1.044-2.37,3.267,3.267,0,0,1,1.276-2.639,5.07,5.07,0,0,1,3.317-1.044,5.534,5.534,0,0,1,2.482.538,4.081,4.081,0,0,1,1.688,1.484,3.8,3.8,0,0,1,.6,2.069h-1.791a2.47,2.47,0,0,0-.779-1.932,3.169,3.169,0,0,0-2.2-.7,3.244,3.244,0,0,0-2.055.581,1.938,1.938,0,0,0-.738,1.612,1.743,1.743,0,0,0,.7,1.4A6.87,6.87,0,0,0,162.423-7.6a11.063,11.063,0,0,1,2.635,1.045,4,4,0,0,1,1.41,1.331,3.4,3.4,0,0,1,.459,1.791,3.156,3.156,0,0,1-1.28,2.63,5.459,5.459,0,0,1-3.423.988,6.349,6.349,0,0,1-2.6-.533,4.372,4.372,0,0,1-1.86-1.461,3.566,3.566,0,0,1-.654-2.106H158.9a2.326,2.326,0,0,0,.9,1.934,3.809,3.809,0,0,0,2.417.71,3.5,3.5,0,0,0,2.162-.575,1.868,1.868,0,0,0,.751-1.568,1.834,1.834,0,0,0-.7-1.535A8.022,8.022,0,0,0,161.917-6.021Z" transform="translate(0 40)" fill="#f68f39"/>
    <path id="Path_44065" data-name="Path 44065" d="M1.651-1.569l.1.656.14-.591.984-3.473h.554L4.385-1.5l.137.6.106-.67.772-3.4h.66L4.854,0h-.6L3.23-3.626l-.079-.379-.079.379L2.01,0h-.6L.208-4.977H.865ZM9.6-2.3H7.444V-.537H9.95V0H6.788V-4.977H9.916v.537H7.444v1.6H9.6Zm3.972.731.1.656.14-.591.984-3.473h.554l.96,3.473.137.6.106-.67.772-3.4h.66L16.775,0h-.6L15.152-3.626l-.079-.379-.079.379L13.932,0h-.6l-1.2-4.977h.656Zm8.965-.759a3.079,3.079,0,0,1-.246,1.277,1.864,1.864,0,0,1-.7.832,1.918,1.918,0,0,1-1.053.287A1.9,1.9,0,0,1,19.5-.22a1.909,1.909,0,0,1-.706-.824,2.954,2.954,0,0,1-.258-1.239v-.359a3.042,3.042,0,0,1,.25-1.268,1.9,1.9,0,0,1,.706-.843,1.894,1.894,0,0,1,1.044-.292,1.929,1.929,0,0,1,1.054.289,1.861,1.861,0,0,1,.7.837,3.093,3.093,0,0,1,.246,1.277Zm-.653-.321a2.231,2.231,0,0,0-.355-1.359,1.172,1.172,0,0,0-.995-.473,1.16,1.16,0,0,0-.979.473,2.186,2.186,0,0,0-.367,1.314v.366a2.235,2.235,0,0,0,.361,1.348,1.165,1.165,0,0,0,.993.49,1.16,1.16,0,0,0,.984-.463,2.222,2.222,0,0,0,.359-1.328Zm3.462.636H24.179V0h-.66V-4.977h1.647a1.95,1.95,0,0,1,1.294.383,1.377,1.377,0,0,1,.453,1.114,1.34,1.34,0,0,1-.251.81,1.5,1.5,0,0,1-.7.516L27.132-.041V0h-.7ZM24.179-2.55h1.008a1.137,1.137,0,0,0,.778-.253.857.857,0,0,0,.289-.678.9.9,0,0,0-.275-.709,1.165,1.165,0,0,0-.795-.25h-1Zm4.918.236-.608.632V0h-.656V-4.977h.656v2.461L30.7-4.977h.793l-1.958,2.2L31.647,0h-.786Zm5.513.366V0h-.656V-4.977H35.79a1.844,1.844,0,0,1,1.28.417,1.414,1.414,0,0,1,.463,1.1A1.4,1.4,0,0,1,37.08-2.34a1.926,1.926,0,0,1-1.3.391Zm0-.537H35.79a1.179,1.179,0,0,0,.807-.248.908.908,0,0,0,.28-.717.938.938,0,0,0-.28-.712,1.1,1.1,0,0,0-.769-.277H34.61Zm6.573.185H39.026V-.537h2.505V0H38.37V-4.977H41.5v.537H39.026v1.6h2.157Zm2.991.287H43V0h-.66V-4.977h1.647a1.95,1.95,0,0,1,1.294.383,1.377,1.377,0,0,1,.453,1.114,1.34,1.34,0,0,1-.251.81,1.5,1.5,0,0,1-.7.516L45.958-.041V0h-.7ZM43-2.55h1.008a1.137,1.137,0,0,0,.778-.253.857.857,0,0,0,.289-.678A.9.9,0,0,0,44.8-4.19a1.165,1.165,0,0,0-.795-.25H43Zm6.4.352H47.315V0h-.656V-4.977h3.083v.537H47.315v1.706H49.4Zm3.938-.1H51.184V-.537h2.505V0H50.528V-4.977h3.127v.537H51.184v1.6h2.157Zm4.826.721a1.831,1.831,0,0,1-.583,1.219,1.91,1.91,0,0,1-1.3.429,1.754,1.754,0,0,1-1.413-.632,2.544,2.544,0,0,1-.531-1.692v-.479a2.835,2.835,0,0,1,.248-1.22,1.851,1.851,0,0,1,.7-.808,1.956,1.956,0,0,1,1.053-.282A1.8,1.8,0,0,1,57.61-4.6a1.853,1.853,0,0,1,.557,1.225h-.66a1.43,1.43,0,0,0-.371-.864,1.122,1.122,0,0,0-.8-.267,1.174,1.174,0,0,0-.986.465A2.136,2.136,0,0,0,55-2.719v.482a2.2,2.2,0,0,0,.338,1.29,1.093,1.093,0,0,0,.947.479,1.263,1.263,0,0,0,.839-.248,1.375,1.375,0,0,0,.388-.863ZM62.4-4.44H60.8V0h-.653V-4.44h-1.6v-.537H62.4Zm1.4,3.9h2.358V0H63.14V-4.977h.66Zm3.808-1.941,1.3-2.5h.745L67.936-1.856V0h-.656V-1.856L65.563-4.977h.752Zm7.164.28H72.683V0h-.656V-4.977H75.11v.537H72.683v1.706h2.088Zm4.953-.13a3.079,3.079,0,0,1-.246,1.277,1.864,1.864,0,0,1-.7.832,1.918,1.918,0,0,1-1.053.287A1.9,1.9,0,0,1,76.686-.22a1.909,1.909,0,0,1-.706-.824,2.954,2.954,0,0,1-.258-1.239v-.359a3.042,3.042,0,0,1,.25-1.268,1.9,1.9,0,0,1,.706-.843,1.894,1.894,0,0,1,1.044-.292,1.929,1.929,0,0,1,1.054.289,1.861,1.861,0,0,1,.7.837,3.093,3.093,0,0,1,.246,1.277Zm-.653-.321a2.231,2.231,0,0,0-.355-1.359,1.172,1.172,0,0,0-.995-.473,1.16,1.16,0,0,0-.979.473,2.186,2.186,0,0,0-.367,1.314v.366a2.235,2.235,0,0,0,.361,1.348,1.165,1.165,0,0,0,.993.49,1.16,1.16,0,0,0,.984-.463,2.222,2.222,0,0,0,.359-1.328Zm3.462.636H81.365V0h-.66V-4.977h1.647a1.95,1.95,0,0,1,1.294.383A1.377,1.377,0,0,1,84.1-3.479a1.34,1.34,0,0,1-.251.81,1.5,1.5,0,0,1-.7.516L84.318-.041V0h-.7ZM81.365-2.55h1.008a1.137,1.137,0,0,0,.778-.253.857.857,0,0,0,.289-.678.9.9,0,0,0-.275-.709,1.165,1.165,0,0,0-.795-.25h-1Zm6.9.072,1.3-2.5h.745L88.6-1.856V0h-.656V-1.856L86.225-4.977h.752Zm6.416.15a3.079,3.079,0,0,1-.246,1.277,1.864,1.864,0,0,1-.7.832,1.918,1.918,0,0,1-1.053.287A1.9,1.9,0,0,1,91.646-.22a1.909,1.909,0,0,1-.706-.824,2.954,2.954,0,0,1-.258-1.239v-.359a3.042,3.042,0,0,1,.25-1.268,1.9,1.9,0,0,1,.706-.843,1.894,1.894,0,0,1,1.044-.292,1.929,1.929,0,0,1,1.054.289,1.861,1.861,0,0,1,.7.837,3.093,3.093,0,0,1,.246,1.277Zm-.653-.321a2.231,2.231,0,0,0-.355-1.359,1.172,1.172,0,0,0-.995-.473,1.16,1.16,0,0,0-.979.473,2.186,2.186,0,0,0-.367,1.314v.366A2.235,2.235,0,0,0,91.7-.979a1.165,1.165,0,0,0,.993.49,1.16,1.16,0,0,0,.984-.463,2.222,2.222,0,0,0,.359-1.328Zm5.141-2.328v3.384A1.587,1.587,0,0,1,98.73-.441a1.784,1.784,0,0,1-1.191.5l-.174.007a1.863,1.863,0,0,1-1.3-.441,1.577,1.577,0,0,1-.492-1.213V-4.977h.649v3.37a1.138,1.138,0,0,0,.3.839,1.143,1.143,0,0,0,.848.3,1.151,1.151,0,0,0,.853-.3,1.136,1.136,0,0,0,.3-.837V-4.977Z" transform="translate(59.982 55.397)" fill="#a2a2a2"/>
  </g>
</svg>
