<svg xmlns="http://www.w3.org/2000/svg" xmlns:xlink="http://www.w3.org/1999/xlink" width="1920" height="229" viewBox="0 0 1920 229">
  <defs>
    <clipPath id="clip-path">
      <rect id="Rectangle_83" data-name="Rectangle 83" width="1920" height="229" transform="translate(4551 -775)" fill="#fff" stroke="#707070" stroke-width="1"/>
    </clipPath>
    <clipPath id="clip-path-2">
      <rect id="Smart_Meter_Banner" width="1920" height="747" transform="translate(0 254)" fill="#192c5e"/>
    </clipPath>
  </defs>
  <g id="Mask_Group_10" data-name="Mask Group 10" transform="translate(-4551 775)" clip-path="url(#clip-path)">
    <g id="Group_13692" data-name="Group 13692" transform="translate(4551 -1562)">
      <g id="Mask_Group_2" data-name="Mask Group 2" clip-path="url(#clip-path-2)">
        <g id="Group_13444" data-name="Group 13444" transform="translate(-69.666 727.193)" opacity="0.9" style="mix-blend-mode: soft-light;isolation: isolate">
          <path id="Path_43916" data-name="Path 43916" d="M1982.667,2467.153c-26.157,4.874-35.317,37.741-32.8,68.152q.233,2.794.483,5.645c2.23,25.59,4.758,54.594-13.8,71.544-14.946,13.659-37.015,13.157-58.358,12.671-22.2-.5-45.164-1.025-60.112,14.448-7.991,8.27-11.673,19.442-15.241,30.237-1.546,4.683-3.139,9.527-5.066,14.052-15.055,35.419-56.471,57.573-94.286,50.439s-68.311-42.858-69.428-81.329l-1.508.045c1.138,39.146,32.163,75.5,70.656,82.764s80.63-15.287,95.953-51.327c1.947-4.59,3.555-9.46,5.108-14.174,3.517-10.634,7.14-21.637,14.893-29.662,14.494-14.995,37.116-14.483,59-13.988,21.638.494,44.014,1,59.405-13.062,19.1-17.456,16.539-46.853,14.281-72.786q-.248-2.851-.485-5.643c-2.463-29.735,6.343-61.844,31.57-66.548Z" transform="translate(-564.931 -2136.412)" fill="none" stroke="#c3d5e2" stroke-width="1"/>
          <path id="Path_43917" data-name="Path 43917" d="M1877.85,2930.893c23.532-44.114,96.421-40.662,119.724-84.9,12.266-23.294,5.545-52.937-9.76-74.357s-37.815-36.379-59.807-50.849l-78.83-51.871c-27.562-18.133-57.085-36.905-90.068-37.571-36.861-.744-71.39,22.447-91.469,53.367s-27.457,68.52-29,105.356c-3.63,86.52,26.727,216.53,99.147,273.769,30.213,23.877,65.917,25.673,98.524,3.37,53.539-36.62,16.013-88.454,41.541-136.315" transform="translate(-101.383 -2596.948)" fill="none" stroke="#c3d5e2" stroke-width="3"/>
          <path id="Path_43918" data-name="Path 43918" d="M88.875,3455.3c-12.673-43.536,2.368-91.306,25.537-129.529s54.15-70.3,78.438-107.712,42.028-83.478,33.261-128.113c-12.827-65.292-79.281-115.8-69.533-181.709,5.434-36.753,33.609-64.008,60.038-88.061l172.659-157.145c35.433-32.249,79.976-66.68,124.162-51.329,47.169,16.388,62.941,78.22,71.525,130.69,19.665,120.249,39.41,241.874,32.223,363.727S573.164,3351.962,493.667,3439.2c-74.057,81.274-356.184,183.062-404.792,16.1" transform="matrix(0.259, 0.966, -0.966, 0.259, 3601.752, -892.836)" fill="none" stroke="#c3d5e2" stroke-width="3"/>
          <path id="Path_43919" data-name="Path 43919" d="M-37.531,2746.867a116.487,116.487,0,0,1,53.012,22.17c24.819,18.475,41.146,45.125,44.8,73.113,1.234,9.466,1.251,19.239,1.273,28.693.027,14.933.056,30.374,4.964,44.585,5.115,14.8,15.2,27.337,24.951,39.467,7.532,9.369,15.323,19.057,20.911,29.832,16.964,32.683,11.249,76.141-13.585,103.328S31.2,3124.864-2.88,3110.924l.57-1.4c33.525,13.715,75.576,4.249,100-22.488s30.042-69.478,13.358-101.621c-5.519-10.643-13.261-20.269-20.746-29.58-9.835-12.229-20-24.876-25.2-39.922-4.993-14.447-5.02-30.016-5.048-45.074-.02-9.4-.04-19.13-1.263-28.5-3.6-27.587-19.712-53.867-44.206-72.1s-54.287-26.127-81.746-21.661l-.242-1.485a99.585,99.585,0,0,1,29.876-.23" transform="translate(67.407 -2745.854)" fill="none" stroke="#c3d5e2" stroke-width="1"/>
        </g>
      </g>
    </g>
  </g>
</svg>
