<svg xmlns="http://www.w3.org/2000/svg" width="62.543" height="62.579" viewBox="0 0 62.543 62.579">
  <g id="equipment-maintenance-screwdriver-tools-wrench-svgrepo-com" transform="translate(1.002 1.151)">
    <path id="Path_55102" data-name="Path 55102" d="M-3800.836-1231.47a6.82,6.82,0,0,1-1.96-5.135,6.821,6.821,0,0,1,2.463-4.913l13.715-11.215,7.046,7.058-11.216,13.7a6.82,6.82,0,0,1-4.913,2.462q-.171.009-.341.009A6.82,6.82,0,0,1-3800.836-1231.47Zm45.555-2.3a7.534,7.534,0,0,1-1.471-8.576l-14.833-14.846,3.5-3.521-9.7,9.7-3.554-3.554,23.084-23.085,4.145-2.963,2.374,2.374-2.963,4.145-13.326,13.325,14.833,14.883a7.536,7.536,0,0,1,8.576,1.472,7.534,7.534,0,0,1,1.471,8.575l-4.132-4.132a2.514,2.514,0,0,0-3.554,0,2.512,2.512,0,0,0,0,3.554l4.132,4.119a7.519,7.519,0,0,1-3.246.736A7.531,7.531,0,0,1-3755.281-1233.77Zm-32.275-19.9,3.552-3.552,8.882,8.881-3.552,3.552Zm-2.4-21.934a7.534,7.534,0,0,1-8.576-1.472,7.534,7.534,0,0,1-1.472-8.575l4.12,4.132a2.514,2.514,0,0,0,3.554,0,2.514,2.514,0,0,0,0-3.554l-4.12-4.119a7.535,7.535,0,0,1,8.576,1.471,7.536,7.536,0,0,1,1.472,8.576l14.82,14.82-3.579,3.555Z" transform="translate(3802.805 1289.929)" fill="none" stroke="#f68b22" stroke-width="2"/>
    <path id="Path_55103" data-name="Path 55103" d="M-3802.8-1279.263l1.776-1.776,1.776,1.776-1.776,1.776Zm3.562-3.562,7.1-7.1,1.776,1.776-7.1,7.1Z" transform="translate(3808.279 1332.403)" fill="none" stroke="#f68b22" stroke-width="2"/>
  </g>
</svg>
